<svg fill="none" height="100%" width="100%" viewBox="0 0 1000 1000" xmlns:xlink="http://www.w3.org/1999/xlink" xmlns="http://www.w3.org/2000/svg"><g id="i0"><g transform="translate(502.25,629.875)"><animateTransform repeatCount="indefinite" type="translate" attributeName="transform" dur="4.104s" begin="0s" calcMode="spline" values="502.25 499.875; 502.25 499.875; 502.25 629.875; 502.25 629.875; 502.25 653.875; 502.25 629.875; 502.25 474.48; 502.25 474.478; 502.25 629.875; 502.25 554.875; 502.25 629.875; 502.25 588.875; 502.25 629.875; 502.25 629.875" keyTimes="0; 0.211382; 0.373984; 0.447155; 0.471545; 0.495935; 0.536585; 0.585366; 0.626016; 0.674797; 0.723577; 0.772358; 0.821138; 1" keySplines="0 0 1 1; 0.333 0 0.667 1; 0 0 1 1; 0.333 0 0.667 1; 0.333 0 0.833 0.833; 0.167 0.167 0.588 0.664; 0.262 1 0.738 0; 0.412 0.336 0.833 0.833; 0.167 0.167 0.667 1; 0.333 0 0.833 0.833; 0.167 0.167 0.667 1; 0.333 0 0.833 0.833; 0 0 1 1" fill="freeze" /><g transform="scale(0.57,0.57)"><animateTransform repeatCount="indefinite" type="scale" attributeName="transform" dur="4.104s" begin="0s" calcMode="spline" values="0 0; 0.765 0.765; 0.71 0.71; 0.71 0.71; 0.57 0.57; 0.57 0.57; 0.57 0.52; 0.57 0.57; 0.57 0.57" keyTimes="0; 0.081301; 0.154471; 0.211382; 0.373984; 0.447154; 0.471545; 0.495935; 1" keySplines="0.333 0 0.667 1; 0.333 0 0.667 1; 0.167 0 0.667 1; 0.167 0 0.833 1; 0.167 0 0.833 1; 0.167 0 0.833 1; 0.167 0 0.833 1; 0 0 1 1" fill="freeze" /><g transform="translate(-500,-500)"><g id="i1" transform="matrix(1,0,0,1,501.804,512.804)"><path fill="#fbfbf0" d="M467.207,0C467.207,258.031,258.032,467.206,0,467.206C-258.031,467.206,-467.207,258.031,-467.207,0C-467.207,-258.031,-258.031,-467.206,0,-467.206C258.032,-467.206,467.207,-258.031,467.207,0Z" /></g></g></g></g></g><g id="i0"><g transform="translate(502.25,629.875)"><animateTransform repeatCount="indefinite" type="translate" attributeName="transform" dur="4.104s" begin="0s" calcMode="spline" values="502.25 499.875; 502.25 499.875; 502.25 629.875; 502.25 629.875; 502.25 653.875; 502.25 629.875; 502.25 474.48; 502.25 474.478; 502.25 629.875; 502.25 554.875; 502.25 629.875; 502.25 588.875; 502.25 629.875; 502.25 629.875" keyTimes="0; 0.211382; 0.373984; 0.447155; 0.471545; 0.495935; 0.536585; 0.585366; 0.626016; 0.674797; 0.723577; 0.772358; 0.821138; 1" keySplines="0 0 1 1; 0.333 0 0.667 1; 0 0 1 1; 0.333 0 0.667 1; 0.333 0 0.833 0.833; 0.167 0.167 0.588 0.664; 0.262 1 0.738 0; 0.412 0.336 0.833 0.833; 0.167 0.167 0.667 1; 0.333 0 0.833 0.833; 0.167 0.167 0.667 1; 0.333 0 0.833 0.833; 0 0 1 1" fill="freeze" /><g transform="scale(0.57,0.57)"><animateTransform repeatCount="indefinite" type="scale" attributeName="transform" dur="4.104s" begin="0s" calcMode="spline" values="0 0; 0.765 0.765; 0.71 0.71; 0.71 0.71; 0.57 0.57; 0.57 0.57; 0.57 0.52; 0.57 0.57; 0.57 0.57" keyTimes="0; 0.081301; 0.154471; 0.211382; 0.373984; 0.447154; 0.471545; 0.495935; 1" keySplines="0.333 0 0.667 1; 0.333 0 0.667 1; 0.167 0 0.667 1; 0.167 0 0.833 1; 0.167 0 0.833 1; 0.167 0 0.833 1; 0.167 0 0.833 1; 0 0 1 1" fill="freeze" /><g transform="translate(-500,-500)"><g id="i2"><g transform="translate(504,514)"><g transform="rotate(0)"><animateTransform repeatCount="indefinite" type="rotate" attributeName="transform" dur="4.104s" begin="0s" calcMode="spline" values="0; 0; -215; -315; -360; -360" keyTimes="0; 0.495935; 0.626016; 0.723577; 0.821138; 1" keySplines="0 0 1 1; 0.167 0.167 0.833 0.86; 0.167 0.225 0.833 0.879; 0.167 0.269 0.833 0.833; 0 0 1 1" fill="freeze" /><g id="f3"><g transform="scale(1,1) translate(-504,-514)"><g id="i4" transform="matrix(1,0,0,1,503.594,528.005)"><path fill="#000000" fill-rule="evenodd" d="M403.918,-190.264C392.562,-198.482,349.979,-227.059,295.208,-236.57C285.101,-253.193,230.199,-340.365,172.335,-371.051C177.331,-407.609,176.824,-432.338,175.17,-447.728C173.154,-448.554,171.129,-449.366,169.098,-450.164C173.417,-415.636,169.706,-387.635,166.722,-372.721C144.461,-373.997,40.23,-358.826,2.975,-335.943C-15.568,-348.731,-72.471,-381.568,-163.587,-377.973C-160.885,-383.986,-165.005,-424.421,-168.209,-451.895C-271.516,-412.503,-357.244,-337.507,-410.399,-241.906C-387.531,-245.557,-349.07,-249.112,-324.209,-245.851C-323.251,-215.057,-318.443,-134.664,-294.457,-66.368C-336.249,-22.128,-358.835,58.321,-359.581,85.358C-405.922,92.117,-437.194,86.296,-448.083,83.618C-453.674,74.026,-459.929,58.282,-465.417,42.862C-460.776,80.307,-451.708,116.379,-438.746,150.535C-441.77,124.183,-444.076,93.642,-444.379,89.569C-411.305,97.078,-372.064,92.195,-359.255,90.24C-341.723,143.688,-259.024,223.227,-239.484,236.58C-234.837,304.061,-211.742,350.227,-202.781,365.855C-223.625,370.039,-254.798,366.715,-275.283,363.624C-200.884,417.431,-110.009,449.856,-11.663,451.895C-12.339,445.55,-13.649,436.649,-16.103,429.2C89.334,417.108,132.38,368.866,144.179,352.409C221.175,347.664,260.686,334.596,313.205,299.794C313.207,299.792,313.209,299.787,313.21,299.784C317.235,304.629,323.114,311.633,327.346,316.378C328.807,314.929,330.258,313.471,331.7,312.002C327.284,307.234,320.519,299.853,316.092,294.649C327.567,274.406,365.22,207.604,370.128,157.233C387.964,134.939,427.545,80.547,450.687,11.072C456.253,13.489,460.824,16.052,464.232,18.19C465.011,7.159,465.417,-3.973,465.417,-15.2C465.417,-88.138,448.699,-157.169,418.892,-218.678C414.307,-208.956,408.248,-196.724,403.918,-190.264ZM-287.5,-67.002C-295.832,-87.295,-314.768,-144.125,-316.572,-244.742C-259.772,-321.55,-197.996,-355.424,-173.901,-370.18C-143.916,-371.766,-64.039,-371.52,-1.57,-331.098C-1.57,-331.098,20.914,-167.041,20.914,-167.041C-1.109,-148.697,-62.833,-95.867,-127.68,-27.646C-192.04,-51.184,-266.809,-63.791,-287.5,-67.002ZM-29.516,425.45C-62.044,419.828,-145.347,396.614,-191.552,371.4C-221.883,328.986,-230.547,264.3,-232.896,237.699C-213.336,230.815,-103.404,182.958,-84.828,168.817C-60.438,181.805,6.861,213.601,108.922,230.733C116.541,260.225,135.363,329.269,139.069,348.295C88.78,419.667,-29.395,425.444,-29.516,425.45ZM112.084,225.065C85.946,220.673,-2.868,203.566,-82.798,162.565C-87.366,139.35,-112.175,1.443,-122.551,-22.981C-104.933,-41.728,-51.103,-97.492,25.979,-163.505C49.35,-158.107,153.846,-132.972,208.237,-103.03C220.175,-67.462,248.928,25.922,248.904,100.27C233.488,118.04,171.925,186.937,112.084,225.065ZM367.813,148.212C349.104,136.41,271.272,103.31,255.296,97.001C255.347,75.966,252.341,3.168,214.119,-105.958C242.327,-138.966,286.809,-216.155,295.401,-231.223C315.459,-227.265,362.273,-215.583,401.718,-187.334C401.668,-187.277,401.614,-187.207,401.565,-187.153C401.565,-187.153,444.41,-85.025,448.355,-1.713C439.85,26.5,415.925,93.665,367.813,148.212Z" /></g></g></g></g></g></g></g></g></g></g><g id="i0"><g transform="translate(502.25,629.875)"><animateTransform repeatCount="indefinite" type="translate" attributeName="transform" dur="4.104s" begin="0s" calcMode="spline" values="502.25 499.875; 502.25 499.875; 502.25 629.875; 502.25 629.875; 502.25 653.875; 502.25 629.875; 502.25 474.48; 502.25 474.478; 502.25 629.875; 502.25 554.875; 502.25 629.875; 502.25 588.875; 502.25 629.875; 502.25 629.875" keyTimes="0; 0.211382; 0.373984; 0.447155; 0.471545; 0.495935; 0.536585; 0.585366; 0.626016; 0.674797; 0.723577; 0.772358; 0.821138; 1" keySplines="0 0 1 1; 0.333 0 0.667 1; 0 0 1 1; 0.333 0 0.667 1; 0.333 0 0.833 0.833; 0.167 0.167 0.588 0.664; 0.262 1 0.738 0; 0.412 0.336 0.833 0.833; 0.167 0.167 0.667 1; 0.333 0 0.833 0.833; 0.167 0.167 0.667 1; 0.333 0 0.833 0.833; 0 0 1 1" fill="freeze" /><g transform="scale(0.57,0.57)"><animateTransform repeatCount="indefinite" type="scale" attributeName="transform" dur="4.104s" begin="0s" calcMode="spline" values="0 0; 0.765 0.765; 0.71 0.71; 0.71 0.71; 0.57 0.57; 0.57 0.57; 0.57 0.52; 0.57 0.57; 0.57 0.57" keyTimes="0; 0.081301; 0.154471; 0.211382; 0.373984; 0.447154; 0.471545; 0.495935; 1" keySplines="0.333 0 0.667 1; 0.333 0 0.667 1; 0.167 0 0.667 1; 0.167 0 0.833 1; 0.167 0 0.833 1; 0.167 0 0.833 1; 0.167 0 0.833 1; 0 0 1 1" fill="freeze" /><g transform="translate(-500,-500)"><g transform="matrix(1,0,0,1,0,0)" id="i5"><g id="i6" transform="matrix(1,0,0,1,544.243,661.175)"><path fill="#000000" fill-opacity="0.2" d="M-42.439,318.836C215.593,318.836,424.768,109.661,424.768,-148.37C424.768,-208.525,413.396,-266.023,392.689,-318.836C331.757,26.825,-72.243,224.825,-424.768,120.211C-340.222,240.341,-200.5,318.836,-42.439,318.836Z" /></g></g></g></g></g></g></svg>